<svg width="10" height="7" viewBox="0 0 10 7" fill="none" xmlns="http://www.w3.org/2000/svg">
<path id="Vector" d="M0.12 0.14342C0.2 0.0481238 0.286667 0.000475883 0.38 0.000475883C0.473333 0.000475883 0.56 0.0481238 0.64 0.14342L4.88 5.19413L9.12 0.14342C9.2 0.0481238 9.28667 0.000475883 9.38 0.000475883C9.47333 0.000475883 9.56 0.0481238 9.64 0.14342C9.72 0.238717 9.76 0.349896 9.76 0.476958C9.76 0.60402 9.72 0.699316 9.64 0.762847L5.16 6.14709C5.08 6.24239 4.98667 6.29004 4.88 6.29004C4.77333 6.29004 4.68 6.24239 4.6 6.14709L0.12 0.762847C0.04 0.699316 0 0.60402 0 0.476958C0 0.349896 0.04 0.238717 0.12 0.14342Z" fill="black"/>
</svg>
