<svg width="196" height="211" viewBox="0 0 196 211" fill="none" xmlns="http://www.w3.org/2000/svg">
<g id="6170572_3014248 1" clip-path="url(#clip0_41_466)">
<g id="Background_Complete">
<g id="Group">
<path id="Vector" d="M195.98 161.107H0V161.213H195.98V161.107Z" fill="#EBEBEB"/>
<path id="Vector_2" d="M176.343 167.889H163.36V167.994H176.343V167.889Z" fill="#EBEBEB"/>
<path id="Vector_3" d="M129.825 169.031H126.418V169.137H129.825V169.031Z" fill="#EBEBEB"/>
<path id="Vector_4" d="M162.969 163.977H155.446V164.082H162.969V163.977Z" fill="#EBEBEB"/>
<path id="Vector_5" d="M37.4915 164.684H20.5615V164.789H37.4915V164.684Z" fill="#EBEBEB"/>
<path id="Vector_6" d="M43.4637 164.684H40.9814V164.789H43.4637V164.684Z" fill="#EBEBEB"/>
<path id="Vector_7" d="M88.2485 166.463H51.5312V166.568H88.2485V166.463Z" fill="#EBEBEB"/>
<path id="Vector_8" d="M92.9 142.318H17.2129C15.9794 142.318 14.9756 141.239 14.9756 139.913V25.5572C14.9756 24.2313 15.9794 23.1523 17.2129 23.1523H92.9C94.1331 23.1523 95.1369 24.2313 95.1369 25.5572V139.913C95.1369 141.239 94.1331 142.318 92.9 142.318ZM17.2129 23.2581C16.0331 23.2581 15.0736 24.2894 15.0736 25.5576V139.913C15.0736 141.181 16.0331 142.213 17.2129 142.213H92.9C94.0794 142.213 95.0389 141.181 95.0389 139.913V25.5572C95.0389 24.2894 94.0794 23.2577 92.9 23.2577L17.2129 23.2581Z" fill="#EBEBEB"/>
<path id="Vector_9" d="M177.68 142.318H101.993C100.759 142.318 99.7559 141.239 99.7559 139.913V25.5572C99.7559 24.2313 100.76 23.1523 101.993 23.1523H177.68C178.913 23.1523 179.917 24.2313 179.917 25.5572V139.913C179.917 141.239 178.913 142.318 177.68 142.318ZM101.993 23.2581C100.813 23.2581 99.8538 24.2894 99.8538 25.5576V139.913C99.8538 141.181 100.813 142.213 101.993 142.213H177.68C178.859 142.213 179.819 141.181 179.819 139.913V25.5572C179.819 24.2894 178.859 23.2577 177.68 23.2577L101.993 23.2581Z" fill="#EBEBEB"/>
</g>
<g id="Group_2">
<g id="Group_3">
<path id="Vector_10" d="M84.4149 31.7406L84.7461 32.4623C84.7853 32.5474 84.8606 32.606 84.9476 32.6199L85.6884 32.7357C85.9079 32.7698 85.9957 33.0601 85.8369 33.2265L85.3007 33.7881C85.2376 33.8543 85.2086 33.9495 85.2235 34.043L85.3501 34.8359C85.3877 35.071 85.1581 35.2505 84.9617 35.1393L84.2989 34.7647C84.2209 34.7205 84.1276 34.7205 84.0496 34.7647L83.3868 35.1393C83.1904 35.2501 82.9607 35.071 82.9984 34.8359L83.125 34.043C83.1399 33.9495 83.1112 33.8543 83.0481 33.7881L82.5119 33.2265C82.3528 33.0601 82.4406 32.7698 82.6605 32.7357L83.4013 32.6199C83.4887 32.6064 83.564 32.5474 83.6028 32.4623L83.934 31.7406C84.0327 31.5266 84.3165 31.5266 84.4149 31.7406Z" fill="#F5F5F5"/>
<path id="Vector_11" d="M35.6141 91.084L35.9453 91.8057C35.9845 91.8908 36.0598 91.9494 36.1472 91.9633L36.888 92.0792C37.1075 92.1133 37.1953 92.4036 37.0365 92.57L36.5003 93.1316C36.4372 93.1977 36.4086 93.2929 36.4231 93.3865L36.5497 94.1794C36.5874 94.4144 36.3577 94.5939 36.1613 94.4827L35.4985 94.1082C35.4205 94.0639 35.3272 94.0639 35.2492 94.1082L34.5864 94.4827C34.39 94.5939 34.1603 94.4144 34.198 94.1794L34.3246 93.3865C34.3395 93.2929 34.3109 93.1977 34.2474 93.1316L33.7112 92.57C33.552 92.4036 33.6398 92.1133 33.8597 92.0792L34.6005 91.9633C34.6879 91.9498 34.7632 91.8908 34.8024 91.8057L35.1336 91.084C35.232 90.8704 35.5161 90.8704 35.6141 91.084Z" fill="#F0F0F0"/>
<path id="Vector_12" d="M29.4596 51.2699L29.7909 51.9916C29.83 52.0767 29.9053 52.1353 29.9923 52.1492L30.7331 52.265C30.9526 52.2991 31.0404 52.5894 30.8817 52.7558L30.3455 53.3174C30.2824 53.3836 30.2534 53.4788 30.2687 53.5723L30.3953 54.3652C30.4329 54.6003 30.2032 54.7798 30.0068 54.6686L29.344 54.294C29.266 54.2498 29.1727 54.2498 29.0947 54.294L28.4319 54.6686C28.2356 54.7798 28.0059 54.6003 28.0435 54.3652L28.1701 53.5723C28.185 53.4788 28.1564 53.3836 28.0929 53.3174L27.5567 52.7558C27.3979 52.5894 27.4853 52.2991 27.7052 52.265L28.446 52.1492C28.5334 52.1357 28.6087 52.0767 28.6479 51.9916L28.9791 51.2699C29.0775 51.0559 29.3617 51.0559 29.4596 51.2699Z" fill="#F0F0F0"/>
<path id="Vector_13" d="M59.1565 69.3789L59.3544 69.8104C59.3779 69.8613 59.4226 69.8963 59.4751 69.9043L59.918 69.9734C60.0493 69.994 60.1019 70.1672 60.0066 70.2671L59.6864 70.6028C59.6488 70.6424 59.6315 70.6993 59.6405 70.7549L59.7162 71.2289C59.7385 71.3696 59.6013 71.4766 59.4837 71.4101L59.0879 71.1863C59.0412 71.1598 58.9856 71.1598 58.9389 71.1863L58.543 71.4101C58.4255 71.4766 58.2883 71.3692 58.3106 71.2289L58.3863 70.7549C58.3953 70.6993 58.378 70.642 58.3404 70.6028L58.0202 70.2671C57.9253 70.1676 57.9774 69.994 58.1087 69.9734L58.5517 69.9043C58.6038 69.8963 58.6489 69.8609 58.6724 69.8104L58.8703 69.3789C58.9283 69.2513 59.0981 69.2513 59.1565 69.3789Z" fill="#F0F0F0"/>
<path id="Vector_14" d="M47.1451 124.58L47.3431 125.012C47.3662 125.062 47.4113 125.098 47.4634 125.106L47.9063 125.175C48.0376 125.196 48.0901 125.369 47.9949 125.469L47.6747 125.804C47.637 125.844 47.6198 125.901 47.6284 125.957L47.7041 126.431C47.7264 126.572 47.5892 126.679 47.472 126.612L47.0761 126.389C47.0295 126.362 46.9738 126.362 46.9272 126.389L46.5309 126.612C46.4133 126.679 46.2762 126.572 46.2989 126.431L46.3745 125.957C46.3836 125.901 46.3663 125.844 46.3287 125.804L46.0084 125.469C45.9136 125.369 45.9657 125.196 46.097 125.175L46.5399 125.106C46.5921 125.098 46.6372 125.062 46.6603 125.012L46.8582 124.58C46.9166 124.452 47.0863 124.452 47.1451 124.58Z" fill="#F5F5F5"/>
<path id="Vector_15" d="M170.267 32.3988L170.465 32.8302C170.488 32.8808 170.533 32.9162 170.585 32.9242L171.028 32.9933C171.159 33.0139 171.212 33.1871 171.117 33.2869L170.796 33.6227C170.758 33.6623 170.741 33.7192 170.75 33.7748L170.826 34.2487C170.848 34.3895 170.711 34.4965 170.594 34.4303L170.198 34.2066C170.151 34.1801 170.096 34.1801 170.049 34.2066L169.653 34.4303C169.535 34.4965 169.398 34.3895 169.421 34.2487L169.497 33.7748C169.506 33.7192 169.488 33.6619 169.451 33.6227L169.131 33.2869C169.036 33.1875 169.088 33.0139 169.219 32.9933L169.662 32.9242C169.714 32.9162 169.759 32.8808 169.782 32.8302L169.98 32.3988C170.038 32.2707 170.208 32.2707 170.267 32.3988Z" fill="#F5F5F5"/>
<path id="Vector_16" d="M166.859 111.91L167.202 112.657C167.242 112.745 167.32 112.805 167.41 112.82L168.177 112.939C168.404 112.975 168.495 113.275 168.33 113.447L167.776 114.028C167.71 114.097 167.68 114.195 167.696 114.292L167.827 115.112C167.866 115.355 167.628 115.541 167.425 115.426L166.739 115.039C166.659 114.994 166.562 114.994 166.481 115.039L165.796 115.426C165.593 115.541 165.355 115.355 165.394 115.112L165.525 114.292C165.54 114.196 165.51 114.097 165.445 114.028L164.891 113.447C164.726 113.275 164.817 112.975 165.044 112.939L165.81 112.82C165.901 112.806 165.979 112.745 166.019 112.657L166.362 111.91C166.464 111.689 166.758 111.689 166.859 111.91Z" fill="#F0F0F0"/>
<path id="Vector_17" d="M124.874 42.0825C124.874 42.3913 124.641 42.6416 124.354 42.6416C124.067 42.6416 123.834 42.3913 123.834 42.0825C123.834 41.7737 124.067 41.5234 124.354 41.5234C124.641 41.5234 124.874 41.7737 124.874 42.0825Z" fill="#F0F0F0"/>
<path id="Vector_18" d="M139.836 150.688C139.836 150.997 139.603 151.247 139.316 151.247C139.029 151.247 138.796 150.997 138.796 150.688C138.796 150.379 139.029 150.129 139.316 150.129C139.603 150.128 139.836 150.379 139.836 150.688Z" fill="#F5F5F5"/>
<path id="Vector_19" d="M52.0328 35.1003C52.0328 36.4245 51.0341 37.4976 49.8025 37.4976C48.5706 37.4976 47.5723 36.4241 47.5723 35.1003C47.5723 33.7762 48.571 32.7031 49.8025 32.7031C51.0341 32.7027 52.0328 33.7762 52.0328 35.1003Z" fill="#F0F0F0"/>
<g id="Group_4">
<path id="Vector_20" d="M73.1335 50.9408C74.6178 51.2104 76.0195 51.3322 77.213 51.3166C76.1618 52.6344 74.5128 53.3452 72.8042 53.0351C71.0925 52.7242 69.7493 51.4695 69.1562 49.8496C70.2816 50.2861 71.6452 50.6703 73.1335 50.9408Z" fill="#F5F5F5"/>
<path id="Vector_21" d="M73.8287 46.5183C72.0872 46.2019 70.4539 46.0898 69.1416 46.1648C69.9267 43.9209 72.1036 42.5163 74.3923 42.9321C76.6778 43.3471 78.3041 45.4427 78.3597 47.8391C77.1435 47.3049 75.5701 46.8343 73.8287 46.5183Z" fill="#F5F5F5"/>
<path id="Vector_22" d="M80.988 49.3258C81.1395 48.3622 77.9519 46.9799 73.8683 46.2382C69.7847 45.4966 66.3515 45.6765 66.2 46.6401C66.0486 47.6036 69.2362 48.986 73.3198 49.7276C77.4034 50.4693 80.8366 50.2894 80.988 49.3258Z" fill="#F5F5F5"/>
</g>
</g>
<g id="Group_5">
<path id="Vector_23" d="M169.968 85.4408C162.291 101.956 143.621 108.652 128.255 100.4C127.621 100.06 127.007 99.7036 126.417 99.3215C135.248 95.8137 142.889 88.8386 147.429 79.0719C153.908 65.1339 152.368 49.1559 144.684 37.1719C148.534 37.5106 152.39 38.6262 156.055 40.5946C171.421 48.8467 177.646 68.9256 169.968 85.4408Z" fill="#F5F5F5"/>
<path id="Vector_24" d="M155.747 46.0685C157.507 47.4672 158.492 49.5771 158.601 51.7624C157.59 50.2436 156.275 48.8125 154.713 47.5709C153.152 46.3293 151.489 45.4041 149.84 44.7957C151.817 44.2695 153.982 44.6643 155.747 46.0685Z" fill="#F0F0F0"/>
<path id="Vector_25" d="M147.898 96.7291C146.07 98.0221 143.888 98.2887 141.941 97.6463C143.616 97.1491 145.32 96.3158 146.942 95.1681C148.564 94.0205 149.946 92.6618 151.045 91.207C150.824 93.3831 149.733 95.4315 147.898 96.7291Z" fill="#F0F0F0"/>
<path id="Vector_26" d="M158.61 64.9187C159.542 67.0463 159.479 69.406 158.612 71.3861C158.391 69.5337 157.864 67.6032 157.037 65.715C156.209 63.8262 155.153 62.1646 153.969 60.7891C155.941 61.3321 157.674 62.7827 158.61 64.9187Z" fill="#F0F0F0"/>
<path id="Vector_27" d="M163.661 87.8606C162.289 89.692 160.287 90.6631 158.251 90.6909C159.704 89.6671 161.089 88.3139 162.307 86.6881C163.526 85.0622 164.455 83.3147 165.088 81.5684C165.496 83.7132 165.039 86.022 163.661 87.8606Z" fill="#F0F0F0"/>
</g>
</g>
</g>
<g id="Group_6">
<path id="Vector_28" d="M79.881 86.655C108.67 82.0687 158.377 130.09 170.606 85.2689C179.281 53.4705 125.103 11.5427 98.6743 31.9098C82.678 44.2372 85.8541 43.2235 62.5364 41.4018C38.9063 39.5556 28.9461 40.7517 25.092 65.6563C23.0977 78.5444 24.8925 103.787 42.2544 110.641C63.9678 119.214 62.2933 89.4571 79.881 86.655Z" fill="#407BFF"/>
<path id="Vector_29" opacity="0.9" d="M79.881 86.655C108.67 82.0687 158.377 130.09 170.606 85.2689C179.281 53.4705 125.103 11.5427 98.6743 31.9098C82.678 44.2372 85.8541 43.2235 62.5364 41.4018C38.9063 39.5556 28.9461 40.7517 25.092 65.6563C23.0977 78.5444 24.8925 103.787 42.2544 110.641C63.9678 119.214 62.2933 89.4571 79.881 86.655Z" fill="white"/>
</g>
<path id="_x3C_Path_x3E__162_" d="M97.9899 180.133C139.962 180.133 173.987 177.997 173.987 175.362C173.987 172.728 139.962 170.592 97.9899 170.592C56.0181 170.592 21.9932 172.728 21.9932 175.362C21.9932 177.997 56.0181 180.133 97.9899 180.133Z" fill="#F5F5F5"/>
<g id="Group_7">
<g id="Group_8">
<g id="Group_9">
<path id="Vector_30" d="M99.6935 55.9613L99.4219 55.7296C100.655 54.0595 101.951 52.4611 103.275 50.9785L103.525 51.2368C102.209 52.7105 100.92 54.3001 99.6935 55.9613Z" fill="#407BFF"/>
<path id="Vector_31" d="M98.2297 57.3432L96.9668 59.0547L97.2386 59.2864L98.5015 57.5749L98.2297 57.3432Z" fill="#407BFF"/>
<path id="Vector_32" d="M125.43 75.5066C133.946 60.7875 135.107 46.2891 128.905 41.5954C122.704 36.9016 110.395 42.9617 100.373 56.5403L71.7109 95.3716L101.077 117.598L125.43 75.5066Z" fill="#407BFF"/>
<path id="Vector_33" opacity="0.1" d="M122.076 72.9694L97.1471 114.624L94.0957 108.359L118.858 70.3615C125.859 59.6145 129.78 49.793 129.797 44.3245C129.799 43.8311 130.453 43.709 130.604 44.1749C132.369 49.6228 129.312 60.8818 122.076 72.9694Z" fill="white"/>
<g id="Group_10">
<path id="Vector_34" d="M101.078 117.607C105.042 111.556 101.683 101.674 93.5738 95.536C85.4648 89.3977 75.6773 89.3268 71.7127 95.3778C67.7481 101.429 71.1078 111.31 79.2167 117.448C87.3256 123.587 97.1131 123.657 101.078 117.607Z" fill="#407BFF"/>
<path id="Vector_35" opacity="0.5" d="M101.078 117.607C105.042 111.556 101.683 101.674 93.5738 95.536C85.4648 89.3977 75.6773 89.3268 71.7127 95.3778C67.7481 101.429 71.1078 111.31 79.2167 117.448C87.3256 123.587 97.1131 123.657 101.078 117.607Z" fill="white"/>
</g>
<path id="Vector_36" opacity="0.1" d="M98.0297 88.6577C91.5843 83.7789 84.2758 82.387 79.6123 84.6671L72.3398 94.5172C76.6424 89.3418 85.8664 89.6957 93.5723 95.5283C101.281 101.363 104.699 110.579 101.611 116.678L107.716 106.13C108.236 100.613 104.543 93.5878 98.0297 88.6577Z" fill="black"/>
<g id="Group_11">
<g id="Group_12">
<path id="Vector_37" opacity="0.2" d="M108.348 56.9023C106.56 59.9425 105.223 65.6352 110.526 69.6489C115.829 73.6627 120.365 70.3913 122.425 67.558L108.348 56.9023Z" fill="black"/>
<path id="Vector_38" d="M123.68 64.0292C123.07 69.4632 117.229 73.4277 111.093 68.7836C104.958 64.1396 106.462 56.8923 111.016 54.4441C113.822 52.9358 117.395 53.5809 119.841 55.4317C122.286 57.2829 124.055 60.6811 123.68 64.0292Z" fill="white"/>
<g id="Group_13">
<path id="Vector_39" d="M111.927 67.5107C109.539 65.7033 108.319 63.3474 108.492 60.8764C108.641 58.7387 109.856 56.807 111.664 55.8355C113.797 54.6887 116.817 55.046 119.007 56.7038C121.197 58.3616 122.528 61.2973 122.242 63.8424C122.001 65.9986 120.718 67.8798 118.896 68.7514C116.789 69.7588 114.315 69.3181 111.927 67.5107Z" fill="#407BFF"/>
<path id="Vector_40" opacity="0.3" d="M111.927 67.5107C109.539 65.7033 108.319 63.3474 108.492 60.8764C108.641 58.7387 109.856 56.807 111.664 55.8355C113.797 54.6887 116.817 55.046 119.007 56.7038C121.197 58.3616 122.528 61.2973 122.242 63.8424C122.001 65.9986 120.718 67.8798 118.896 68.7514C116.789 69.7588 114.315 69.3181 111.927 67.5107Z" fill="black"/>
</g>
<g id="Group_14">
<path id="Vector_41" d="M111.927 67.512C109.539 65.7046 108.276 63.4144 108.37 61.0631C108.452 59.0286 109.581 57.2279 111.318 56.3639C113.369 55.3439 116.33 55.7896 118.521 57.4475C120.711 59.1053 122.1 61.9525 121.897 64.3708C121.725 66.4196 120.529 68.1697 118.774 68.9381C116.746 69.8258 114.315 69.3194 111.927 67.512Z" fill="#407BFF"/>
<path id="Vector_42" opacity="0.2" d="M111.927 67.512C109.539 65.7046 108.276 63.4144 108.37 61.0631C108.452 59.0286 109.581 57.2279 111.318 56.3639C113.369 55.3439 116.33 55.7896 118.521 57.4475C120.711 59.1053 122.1 61.9525 121.897 64.3708C121.725 66.4196 120.529 68.1697 118.774 68.9381C116.746 69.8258 114.315 69.3194 111.927 67.512Z" fill="white"/>
</g>
</g>
<path id="Vector_43" opacity="0.3" d="M120.177 59.1142L109.145 64.3443C108.59 63.3003 108.325 62.191 108.369 61.0632C108.391 60.5087 108.489 59.9741 108.663 59.4727L115.783 56.0977C116.748 56.3614 117.689 56.8168 118.521 57.4467C119.145 57.919 119.704 58.4848 120.177 59.1142Z" fill="white"/>
<path id="Vector_44" opacity="0.3" d="M121.76 62.4882L111.637 67.2835C110.993 66.767 110.442 66.2167 109.983 65.632L120.998 60.4082C121.349 61.0823 121.608 61.7876 121.76 62.4882Z" fill="white"/>
</g>
<path id="Vector_45" opacity="0.1" d="M132.799 53.1044C132.463 50.1991 130.384 46.8371 127.1 44.351C123.818 41.867 120.173 40.8967 117.512 41.5329C122.038 39.5489 126.096 39.4706 128.905 41.5961C131.713 43.722 133.011 47.855 132.799 53.1044Z" fill="black"/>
<g id="Group_15">
<g id="Group_16">
<path id="Vector_46" opacity="0.5" d="M93.5687 105.752C94.8038 103.867 93.8034 100.823 91.3342 98.9543C88.865 97.0852 85.8621 97.0982 84.627 98.9832C83.3919 100.868 84.3923 103.912 86.8615 105.781C89.3306 107.65 92.3335 107.637 93.5687 105.752Z" fill="#407BFF"/>
<path id="Vector_47" opacity="0.5" d="M81.903 103.97C80.6679 105.855 77.6651 105.868 75.1957 103.999C72.7264 102.13 71.7257 99.0865 72.9608 97.2016C74.1958 95.3166 77.1987 95.3036 79.668 97.1725C82.1374 99.0418 83.138 102.085 81.903 103.97Z" fill="#407BFF"/>
<path id="Vector_48" opacity="0.5" d="M99.0534 116.95C97.8183 118.835 94.8155 118.848 92.3461 116.979C89.8768 115.11 88.8761 112.067 90.1112 110.182C91.3462 108.297 94.349 108.284 96.8184 110.153C99.2877 112.022 100.288 115.065 99.0534 116.95Z" fill="#407BFF"/>
<path id="Vector_49" opacity="0.5" d="M87.3893 115.175C86.1542 117.06 83.1514 117.073 80.6821 115.204C78.2127 113.335 77.212 110.292 78.4471 108.407C79.6822 106.522 82.685 106.509 85.1543 108.378C87.6237 110.246 88.6244 113.29 87.3893 115.175Z" fill="#407BFF"/>
</g>
<g id="Group_17">
<path id="Vector_50" opacity="0.5" d="M93.5669 105.744C93.4364 105.943 93.2812 106.125 93.1146 106.283C93.7989 104.402 92.763 101.797 90.5582 100.128C88.353 98.4589 85.7222 98.2887 84.3057 99.615C84.3876 99.3934 84.4938 99.1751 84.6247 98.9758C85.8582 97.093 88.8634 97.0787 91.3319 98.9468C93.8001 100.815 94.8004 103.861 93.5669 105.744Z" fill="#407BFF"/>
<path id="Vector_51" opacity="0.5" d="M81.9013 103.97C81.7704 104.17 81.6179 104.347 81.449 104.508C82.1357 102.625 81.1029 100.022 78.8946 98.3506C76.6894 96.6813 74.0585 96.5111 72.6396 97.8408C72.7235 97.6158 72.8282 97.4014 72.9587 97.2017C74.1946 95.3155 77.1974 95.3045 79.6659 97.173C82.1376 99.0436 83.1367 102.084 81.9013 103.97Z" fill="#407BFF"/>
<path id="Vector_52" opacity="0.5" d="M99.0536 116.953C98.9227 117.153 98.7698 117.331 98.6013 117.492C99.288 115.608 98.2525 113.003 96.0469 111.334C93.8386 109.663 91.2109 109.495 89.792 110.824C89.8763 110.599 89.9805 110.385 90.1114 110.185C91.3473 108.299 94.347 108.285 96.8183 110.156C99.2868 112.024 100.289 115.067 99.0536 116.953Z" fill="#407BFF"/>
<path id="Vector_53" opacity="0.5" d="M87.3886 115.175C87.2577 115.375 87.1079 115.555 86.9363 115.713C87.6206 113.833 86.587 111.224 84.3819 109.556C82.1767 107.886 79.5435 107.72 78.127 109.046C78.2077 108.819 78.3151 108.606 78.446 108.407C79.6819 106.521 82.6847 106.51 85.1532 108.378C87.6218 110.246 88.624 113.289 87.3886 115.175Z" fill="#407BFF"/>
</g>
</g>
</g>
<g id="Group_18">
<g id="Group_19">
<path id="Vector_54" d="M91.1603 70.8771C91.1603 70.8771 85.872 78.2567 81.2629 84.6112C79.9432 86.4308 77.8234 87.2987 75.6931 87.0152C71.6658 86.4793 65.0938 89.5502 65.0938 89.5502C65.0938 89.5502 77.5154 67.6402 91.1603 70.8771Z" fill="#407BFF"/>
<path id="Vector_55" opacity="0.3" d="M91.1603 70.8771C91.1603 70.8771 85.872 78.2567 81.2629 84.6112C79.9432 86.4308 77.8234 87.2987 75.6931 87.0152C71.6658 86.4793 65.0938 89.5502 65.0938 89.5502C65.0938 89.5502 77.5154 67.6402 91.1603 70.8771Z" fill="black"/>
</g>
<g id="Group_20">
<path id="Vector_56" d="M115.977 89.6621C115.977 89.6621 111.296 97.5005 107.283 104.307C106.134 106.256 106.088 108.693 107.054 110.753C108.881 114.649 108.406 122.334 108.406 122.334C108.406 122.334 123.411 102.38 115.977 89.6621Z" fill="#407BFF"/>
<path id="Vector_57" opacity="0.3" d="M115.977 89.6621C115.977 89.6621 111.296 97.5005 107.283 104.307C106.134 106.256 106.088 108.693 107.054 110.753C108.881 114.649 108.406 122.334 108.406 122.334C108.406 122.334 123.411 102.38 115.977 89.6621Z" fill="black"/>
</g>
</g>
</g>
<g id="Group_21">
<path id="Vector_58" d="M133.074 146.03C137.952 133.153 116.812 129.505 108.426 132.736C100.04 135.967 91.5085 138.369 91.1726 129.753C90.8367 121.138 97.295 115.795 94.2201 113.806C92.5131 112.703 92.0255 114.665 91.1863 117.491C88.6033 126.188 73.9989 128.262 80.7182 140.854C87.438 153.446 83.8696 150.712 72.5478 155.766C61.2257 160.819 67.0478 175.363 78.0004 175.363C88.9529 175.363 123.467 175.363 143.888 175.363C174.084 175.363 145.496 113.238 133.074 146.03Z" fill="#407BFF"/>
<path id="Vector_59" opacity="0.6" d="M133.074 146.03C137.952 133.153 116.812 129.505 108.426 132.736C100.04 135.967 91.5085 138.369 91.1726 129.753C90.8367 121.138 97.295 115.795 94.2201 113.806C92.5131 112.703 92.0255 114.665 91.1863 117.491C88.6033 126.188 73.9989 128.262 80.7182 140.854C87.438 153.446 83.8696 150.712 72.5478 155.766C61.2257 160.819 67.0478 175.363 78.0004 175.363C88.9529 175.363 123.467 175.363 143.888 175.363C174.084 175.363 145.496 113.238 133.074 146.03Z" fill="white"/>
</g>
<g id="Group_22">
<path id="Vector_60" d="M77.4317 101.153C76.5529 97.874 71.8028 102.005 67.1208 106.984C62.4008 112.004 60.1329 123.374 55.6082 129.298C51.0516 135.262 38.1177 140.623 43.1854 149.553C50.6612 162.724 33.4793 175.363 53.8259 175.363C74.1726 175.363 87.93 175.363 95.5599 175.363C103.19 175.363 111.466 165.334 99.5822 158.499C87.6987 151.665 69.8951 167.581 65.0932 152.411C62.7105 144.883 71.3508 148.338 67.3521 136.008C63.3533 123.679 63.612 120.325 65.6537 114.83C70.6206 101.465 78.7663 106.131 77.4317 101.153Z" fill="#407BFF"/>
<path id="Vector_61" opacity="0.6" d="M77.4317 101.153C76.5529 97.874 71.8028 102.005 67.1208 106.984C62.4008 112.004 60.1329 123.374 55.6082 129.298C51.0516 135.262 38.1177 140.623 43.1854 149.553C50.6612 162.724 33.4793 175.363 53.8259 175.363C74.1726 175.363 87.93 175.363 95.5599 175.363C103.19 175.363 111.466 165.334 99.5822 158.499C87.6987 151.665 69.8951 167.581 65.0932 152.411C62.7105 144.883 71.3508 148.338 67.3521 136.008C63.3533 123.679 63.612 120.325 65.6537 114.83C70.6206 101.465 78.7663 106.131 77.4317 101.153Z" fill="white"/>
</g>
<g id="Group_23">
<path id="Vector_62" d="M86.08 102.663C87.116 100.631 90.6663 101.851 90.5887 104.507C90.5111 107.163 81.3142 110.65 83.0227 119.828C84.7313 129.006 101.147 129.669 105.001 138.865C108.854 148.06 93.9302 149.351 98.3652 155.101C102.8 160.852 116.562 147.645 126.35 151.042C136.138 154.439 145.926 175.362 127.968 175.362C110.011 175.362 84.6709 175.362 72.6397 175.362C60.6085 175.362 51.8223 148.654 63.3832 137.671C74.9437 126.687 65.6181 130.249 69.9344 123.208C74.2499 116.166 82.111 110.45 86.08 102.663Z" fill="#407BFF"/>
<path id="Vector_63" opacity="0.8" d="M86.08 102.663C87.116 100.631 90.6663 101.851 90.5887 104.507C90.5111 107.163 81.3142 110.65 83.0227 119.828C84.7313 129.006 101.147 129.669 105.001 138.865C108.854 148.06 93.9302 149.351 98.3652 155.101C102.8 160.852 116.562 147.645 126.35 151.042C136.138 154.439 145.926 175.362 127.968 175.362C110.011 175.362 84.6709 175.362 72.6397 175.362C60.6085 175.362 51.8223 148.654 63.3832 137.671C74.9437 126.687 65.6181 130.249 69.9344 123.208C74.2499 116.166 82.111 110.45 86.08 102.663Z" fill="white"/>
</g>
</g>
</g>
<defs>
<clipPath id="clip0_41_466">
<rect width="195.98" height="210.652" fill="white"/>
</clipPath>
</defs>
</svg>
