<svg width="196" height="189" viewBox="0 0 196 189" fill="none" xmlns="http://www.w3.org/2000/svg">
<g id="6170572_3014248 1" clip-path="url(#clip0_41_466)">
<g id="Background_Complete">
<g id="Group">
<path id="Vector" d="M196 144.547H0V144.641H196V144.547Z" fill="#EBEBEB"/>
<path id="Vector_2" d="M176.361 150.631H163.377V150.725H176.361V150.631Z" fill="#EBEBEB"/>
<path id="Vector_3" d="M129.838 151.656H126.431V151.751H129.838V151.656Z" fill="#EBEBEB"/>
<path id="Vector_4" d="M162.985 147.121H155.462V147.216H162.985V147.121Z" fill="#EBEBEB"/>
<path id="Vector_5" d="M37.4951 147.756H20.5635V147.85H37.4951V147.756Z" fill="#EBEBEB"/>
<path id="Vector_6" d="M43.4679 147.756H40.9854V147.85H43.4679V147.756Z" fill="#EBEBEB"/>
<path id="Vector_7" d="M88.2571 149.352H51.5361V149.446H88.2571V149.352Z" fill="#EBEBEB"/>
<path id="Vector_8" d="M92.9099 127.688H17.2151C15.9815 127.688 14.9775 126.72 14.9775 125.53V22.9291C14.9775 21.7395 15.9815 20.7715 17.2151 20.7715H92.9099C94.1431 20.7715 95.147 21.7395 95.147 22.9291V125.53C95.147 126.72 94.1431 127.688 92.9099 127.688ZM17.2151 20.8664C16.0352 20.8664 15.0755 21.7917 15.0755 22.9295V125.531C15.0755 126.669 16.0352 127.594 17.2151 127.594H92.9099C94.0894 127.594 95.049 126.669 95.049 125.531V22.9291C95.049 21.7917 94.0894 20.866 92.9099 20.866L17.2151 20.8664Z" fill="#EBEBEB"/>
<path id="Vector_9" d="M177.697 127.688H102.003C100.769 127.688 99.7656 126.72 99.7656 125.53V22.9291C99.7656 21.7395 100.77 20.7715 102.003 20.7715H177.697C178.931 20.7715 179.935 21.7395 179.935 22.9291V125.53C179.935 126.72 178.931 127.688 177.697 127.688ZM102.003 20.8664C100.823 20.8664 99.8636 21.7917 99.8636 22.9295V125.531C99.8636 126.669 100.823 127.594 102.003 127.594H177.697C178.877 127.594 179.837 126.669 179.837 125.531V22.9291C179.837 21.7917 178.877 20.866 177.697 20.866L102.003 20.8664Z" fill="#EBEBEB"/>
</g>
<g id="Group_2">
<g id="Group_3">
<path id="Vector_10" d="M84.4239 28.476L84.7551 29.1236C84.7943 29.1999 84.8696 29.2525 84.9566 29.2649L85.6975 29.3689C85.917 29.3995 86.0048 29.6599 85.8461 29.8093L85.3098 30.3131C85.2467 30.3725 85.2177 30.4579 85.2326 30.5418L85.3592 31.2532C85.3968 31.4641 85.1671 31.6252 84.9707 31.5254L84.3079 31.1893C84.2299 31.1496 84.1366 31.1496 84.0585 31.1893L83.3957 31.5254C83.1993 31.6248 82.9696 31.4641 83.0072 31.2532L83.1338 30.5418C83.1487 30.4579 83.1201 30.3725 83.057 30.3131L82.5207 29.8093C82.3616 29.6599 82.4494 29.3995 82.6693 29.3689L83.4102 29.2649C83.4976 29.2528 83.5729 29.1999 83.6117 29.1236L83.9429 28.476C84.0417 28.284 84.3255 28.284 84.4239 28.476Z" fill="#F5F5F5"/>
<path id="Vector_11" d="M35.6172 81.7199L35.9485 82.3674C35.9877 82.4438 36.063 82.4963 36.1504 82.5088L36.8913 82.6127C37.1108 82.6434 37.1986 82.9038 37.0398 83.0531L36.5036 83.557C36.4405 83.6163 36.4118 83.7018 36.4263 83.7857L36.553 84.4971C36.5906 84.708 36.3609 84.869 36.1645 84.7692L35.5016 84.4332C35.4236 84.3935 35.3303 84.3935 35.2523 84.4332L34.5894 84.7692C34.393 84.869 34.1633 84.708 34.201 84.4971L34.3276 83.7857C34.3425 83.7018 34.3139 83.6163 34.2503 83.557L33.7141 83.0531C33.5549 82.9038 33.6427 82.6434 33.8627 82.6127L34.6035 82.5088C34.691 82.4967 34.7662 82.4438 34.8054 82.3674L35.1367 81.7199C35.2351 81.5283 35.5193 81.5283 35.6172 81.7199Z" fill="#F0F0F0"/>
<path id="Vector_12" d="M29.4628 45.9975L29.794 46.645C29.8332 46.7214 29.9085 46.7739 29.9955 46.7864L30.7364 46.8904C30.9559 46.921 31.0437 47.1814 30.885 47.3307L30.3487 47.8346C30.2856 47.894 30.2566 47.9794 30.2719 48.0633L30.3985 48.7747C30.4361 48.9856 30.2064 49.1467 30.01 49.0469L29.3471 48.7108C29.2691 48.6711 29.1758 48.6711 29.0978 48.7108L28.435 49.0469C28.2386 49.1467 28.0088 48.9856 28.0465 48.7747L28.1731 48.0633C28.188 47.9794 28.1594 47.894 28.0959 47.8346L27.5596 47.3307C27.4009 47.1814 27.4883 46.921 27.7082 46.8904L28.4491 46.7864C28.5365 46.7743 28.6117 46.7214 28.6509 46.645L28.9822 45.9975C29.0806 45.8055 29.3648 45.8055 29.4628 45.9975Z" fill="#F0F0F0"/>
<path id="Vector_13" d="M59.1624 62.2461L59.3604 62.6331C59.3839 62.6789 59.4286 62.7102 59.4811 62.7174L59.9241 62.7794C60.0554 62.7979 60.1079 62.9533 60.0127 63.0429L59.6924 63.3441C59.6548 63.3797 59.6375 63.4307 59.6466 63.4806L59.7222 63.9059C59.7446 64.0321 59.6074 64.1281 59.4898 64.0684L59.0938 63.8677C59.0472 63.8439 58.9915 63.8439 58.9449 63.8677L58.549 64.0684C58.4314 64.1281 58.2942 64.0317 58.3165 63.9059L58.3922 63.4806C58.4012 63.4307 58.3839 63.3793 58.3463 63.3441L58.026 63.0429C57.9312 62.9537 57.9833 62.7979 58.1146 62.7794L58.5576 62.7174C58.6097 62.7102 58.6548 62.6785 58.6783 62.6331L58.8763 62.2461C58.9343 62.1315 59.104 62.1315 59.1624 62.2461Z" fill="#F0F0F0"/>
<path id="Vector_14" d="M47.1501 111.774L47.3481 112.161C47.3712 112.206 47.4163 112.238 47.4684 112.245L47.9114 112.307C48.0427 112.326 48.0952 112.481 48 112.571L47.6797 112.872C47.6421 112.907 47.6248 112.958 47.6335 113.009L47.7091 113.434C47.7315 113.56 47.5943 113.656 47.4771 113.597L47.0811 113.396C47.0345 113.372 46.9788 113.372 46.9322 113.396L46.5359 113.597C46.4183 113.657 46.2811 113.56 46.3038 113.434L46.3795 113.009C46.3885 112.958 46.3712 112.907 46.3336 112.872L46.0133 112.571C45.9185 112.481 45.9706 112.326 46.1019 112.307L46.5449 112.245C46.597 112.238 46.6421 112.206 46.6652 112.161L46.8632 111.774C46.9216 111.659 47.0913 111.659 47.1501 111.774Z" fill="#F5F5F5"/>
<path id="Vector_15" d="M170.285 29.0667L170.482 29.4537C170.506 29.4991 170.551 29.5308 170.603 29.538L171.046 29.6C171.177 29.6185 171.23 29.7739 171.134 29.8635L170.814 30.1647C170.776 30.2003 170.759 30.2513 170.768 30.3012L170.843 30.7265C170.866 30.8527 170.729 30.9487 170.611 30.8894L170.216 30.6887C170.169 30.6648 170.113 30.6648 170.067 30.6887L169.671 30.8894C169.553 30.9487 169.416 30.8527 169.439 30.7265L169.514 30.3012C169.523 30.2513 169.506 30.1999 169.468 30.1647L169.148 29.8635C169.053 29.7743 169.105 29.6185 169.237 29.6L169.68 29.538C169.732 29.5308 169.777 29.4991 169.8 29.4537L169.998 29.0667C170.056 28.9517 170.226 28.9517 170.285 29.0667Z" fill="#F5F5F5"/>
<path id="Vector_16" d="M166.877 100.405L167.22 101.075C167.26 101.154 167.338 101.208 167.428 101.221L168.195 101.328C168.422 101.36 168.513 101.629 168.348 101.784L167.794 102.305C167.728 102.367 167.698 102.455 167.714 102.542L167.845 103.278C167.884 103.496 167.646 103.663 167.443 103.559L166.757 103.212C166.676 103.171 166.58 103.171 166.499 103.212L165.814 103.559C165.61 103.663 165.373 103.496 165.411 103.278L165.542 102.542C165.558 102.455 165.528 102.367 165.463 102.305L164.908 101.784C164.744 101.629 164.834 101.36 165.062 101.328L165.828 101.221C165.918 101.208 165.996 101.154 166.037 101.075L166.379 100.405C166.482 100.206 166.776 100.206 166.877 100.405Z" fill="#F0F0F0"/>
<path id="Vector_17" d="M124.887 37.7555C124.887 38.0326 124.654 38.2571 124.367 38.2571C124.08 38.2571 123.847 38.0326 123.847 37.7555C123.847 37.4784 124.08 37.2539 124.367 37.2539C124.654 37.2539 124.887 37.4784 124.887 37.7555Z" fill="#F0F0F0"/>
<path id="Vector_18" d="M139.851 135.197C139.851 135.474 139.618 135.699 139.331 135.699C139.043 135.699 138.811 135.474 138.811 135.197C138.811 134.92 139.043 134.695 139.331 134.695C139.618 134.695 139.851 134.92 139.851 135.197Z" fill="#F5F5F5"/>
<path id="Vector_19" d="M52.0381 31.4907C52.0381 32.6787 51.0393 33.6415 49.8076 33.6415C48.5756 33.6415 47.5771 32.6783 47.5771 31.4907C47.5771 30.3026 48.576 29.3398 49.8076 29.3398C51.0393 29.3395 52.0381 30.3026 52.0381 31.4907Z" fill="#F0F0F0"/>
<g id="Group_4">
<path id="Vector_20" d="M73.1417 45.7017C74.6262 45.9436 76.028 46.0528 77.2216 46.0389C76.1703 47.2212 74.5211 47.8589 72.8124 47.5807C71.1005 47.3017 69.7572 46.1761 69.1641 44.7227C70.2895 45.1143 71.6533 45.459 73.1417 45.7017Z" fill="#F5F5F5"/>
<path id="Vector_21" d="M73.836 41.734C72.0943 41.4501 70.4609 41.3496 69.1484 41.4169C69.9336 39.4036 72.1108 38.1434 74.3997 38.5165C76.6854 38.8888 78.3118 40.769 78.3675 42.919C77.1511 42.4397 75.5776 42.0175 73.836 41.734Z" fill="#F5F5F5"/>
<path id="Vector_22" d="M80.9964 44.2525C81.1479 43.388 77.96 42.1477 73.8759 41.4823C69.7919 40.8169 66.3584 40.9783 66.2069 41.8428C66.0554 42.7074 69.2434 43.9476 73.3274 44.613C77.4114 45.2784 80.8449 45.117 80.9964 44.2525Z" fill="#F5F5F5"/>
</g>
</g>
<g id="Group_5">
<path id="Vector_23" d="M169.987 76.6571C162.308 91.475 143.636 97.4826 128.269 90.0787C127.635 89.7733 127.021 89.4539 126.431 89.111C135.263 85.9638 142.904 79.7056 147.445 70.9428C153.924 58.4375 152.385 44.1018 144.699 33.3496C148.55 33.6535 152.406 34.6545 156.072 36.4205C171.439 43.8244 177.665 61.8395 169.987 76.6571Z" fill="#F5F5F5"/>
<path id="Vector_24" d="M155.764 41.3327C157.523 42.5876 158.508 44.4807 158.618 46.4413C157.606 45.0787 156.291 43.7946 154.73 42.6806C153.168 41.5667 151.505 40.7366 149.855 40.1907C151.833 39.7186 153.998 40.0728 155.764 41.3327Z" fill="#F0F0F0"/>
<path id="Vector_25" d="M147.914 86.7845C146.086 87.9446 143.904 88.1839 141.957 87.6074C143.632 87.1614 145.336 86.4137 146.958 85.384C148.581 84.3544 149.962 83.1353 151.062 81.8301C150.84 83.7824 149.749 85.6203 147.914 86.7845Z" fill="#F0F0F0"/>
<path id="Vector_26" d="M158.627 58.2442C159.559 60.1531 159.496 62.2703 158.629 64.0469C158.408 62.3848 157.881 60.6528 157.054 58.9586C156.226 57.2641 155.17 55.7732 153.985 54.5391C155.958 55.0263 157.691 56.3278 158.627 58.2442Z" fill="#F0F0F0"/>
<path id="Vector_27" d="M163.678 78.829C162.306 80.4722 160.304 81.3435 158.268 81.3684C159.721 80.4499 161.106 79.2358 162.324 77.7771C163.543 76.3184 164.472 74.7504 165.105 73.1836C165.513 75.108 165.057 77.1794 163.678 78.829Z" fill="#F0F0F0"/>
</g>
</g>
</g>
<g id="Group_6">
<path id="Vector_28" d="M79.8895 77.7477C108.682 73.6328 158.393 116.718 170.623 76.5041C179.3 47.9742 125.116 10.356 98.6848 28.6296C82.6869 39.6899 85.8632 38.7804 62.5432 37.146C38.9107 35.4896 28.9495 36.5627 25.095 58.9074C23.1005 70.4708 24.8955 93.1183 42.2591 99.2684C63.9747 106.96 62.3001 80.2618 79.8895 77.7477Z" fill="#407BFF"/>
<path id="Vector_29" opacity="0.9" d="M79.8895 77.7477C108.682 73.6328 158.393 116.718 170.623 76.5041C179.3 47.9742 125.116 10.356 98.6848 28.6296C82.6869 39.6899 85.8632 38.7804 62.5432 37.146C38.9107 35.4896 28.9495 36.5627 25.095 58.9074C23.1005 70.4708 24.8955 93.1183 42.2591 99.2684C63.9747 106.96 62.3001 80.2618 79.8895 77.7477Z" fill="white"/>
</g>
<path id="_x3C_Path_x3E__162_" d="M97.9996 161.619C139.976 161.619 174.004 159.703 174.004 157.339C174.004 154.975 139.976 153.059 97.9996 153.059C56.0235 153.059 21.9951 154.975 21.9951 157.339C21.9951 159.703 56.0235 161.619 97.9996 161.619Z" fill="#F5F5F5"/>
<g id="Group_7">
<g id="Group_8">
<g id="Group_9">
<path id="Vector_30" d="M99.7043 50.2108L99.4326 50.0029C100.665 48.5045 101.962 47.0704 103.286 45.7402L103.536 45.9719C102.22 47.2942 100.93 48.7204 99.7043 50.2108Z" fill="#407BFF"/>
<path id="Vector_31" d="M98.2396 51.4488L96.9766 52.9844L97.2484 53.1923L98.5114 51.6566L98.2396 51.4488Z" fill="#407BFF"/>
<path id="Vector_32" d="M125.444 67.7461C133.961 54.5399 135.121 41.5318 128.919 37.3205C122.717 33.1092 110.407 38.5464 100.383 50.7293L71.7188 85.5692L101.087 105.511L125.444 67.7461Z" fill="#407BFF"/>
<path id="Vector_33" opacity="0.1" d="M122.088 65.4699L97.1572 102.843L94.1055 97.2223L118.87 63.1301C125.872 53.4877 129.793 44.6758 129.81 39.7693C129.812 39.3267 130.466 39.2171 130.617 39.6351C132.382 44.523 129.325 54.6247 122.088 65.4699Z" fill="white"/>
<g id="Group_10">
<path id="Vector_34" d="M101.088 105.518C105.053 100.089 101.693 91.2235 93.5835 85.7162C85.4738 80.2088 75.6853 80.1453 71.7203 85.5743C67.7553 91.0032 71.1153 99.8689 79.225 105.376C87.3347 110.884 97.1233 110.947 101.088 105.518Z" fill="#407BFF"/>
<path id="Vector_35" opacity="0.5" d="M101.088 105.518C105.053 100.089 101.693 91.2235 93.5835 85.7162C85.4738 80.2088 75.6853 80.1453 71.7203 85.5743C67.7553 91.0032 71.1153 99.8689 79.225 105.376C87.3347 110.884 97.1233 110.947 101.088 105.518Z" fill="white"/>
</g>
<path id="Vector_36" opacity="0.1" d="M98.0401 79.544C91.5941 75.1668 84.2848 73.9178 79.6208 75.9636L72.3477 84.8012C76.6506 80.1579 85.8756 80.4754 93.5823 85.7084C101.292 90.9437 104.71 99.2117 101.622 104.684L107.728 95.22C108.248 90.2709 104.554 83.9674 98.0401 79.544Z" fill="black"/>
<g id="Group_11">
<g id="Group_12">
<path id="Vector_37" opacity="0.2" d="M108.36 51.0547C106.572 53.7823 105.235 58.8899 110.538 62.4911C115.841 66.0923 120.378 63.1571 122.438 60.6151L108.36 51.0547Z" fill="black"/>
<path id="Vector_38" d="M123.693 57.448C123.083 62.3235 117.242 65.8804 111.105 61.7138C104.969 57.5471 106.474 51.0447 111.028 48.8481C113.835 47.4949 117.408 48.0736 119.854 49.7342C122.299 51.3951 124.069 54.4441 123.693 57.448Z" fill="white"/>
<g id="Group_13">
<path id="Vector_39" d="M111.939 60.5721C109.551 58.9505 108.331 56.8367 108.503 54.6197C108.653 52.7018 109.868 50.9686 111.676 50.097C113.809 49.068 116.829 49.3886 119.02 50.876C121.21 52.3634 122.541 54.9973 122.256 57.2808C122.014 59.2155 120.731 60.9032 118.909 61.6853C116.802 62.5891 114.327 62.1937 111.939 60.5721Z" fill="#407BFF"/>
<path id="Vector_40" opacity="0.3" d="M111.939 60.5721C109.551 58.9505 108.331 56.8367 108.503 54.6197C108.653 52.7018 109.868 50.9686 111.676 50.097C113.809 49.068 116.829 49.3886 119.02 50.876C121.21 52.3634 122.541 54.9973 122.256 57.2808C122.014 59.2155 120.731 60.9032 118.909 61.6853C116.802 62.5891 114.327 62.1937 111.939 60.5721Z" fill="black"/>
</g>
<g id="Group_14">
<path id="Vector_41" d="M111.939 60.572C109.551 58.9503 108.288 56.8955 108.382 54.7859C108.463 52.9606 109.593 51.345 111.33 50.5697C113.381 49.6546 116.343 50.0545 118.533 51.5419C120.724 53.0294 122.113 55.5839 121.91 57.7536C121.738 59.5918 120.542 61.162 118.787 61.8515C116.759 62.6479 114.327 62.1936 111.939 60.572Z" fill="#407BFF"/>
<path id="Vector_42" opacity="0.2" d="M111.939 60.572C109.551 58.9503 108.288 56.8955 108.382 54.7859C108.463 52.9606 109.593 51.345 111.33 50.5697C113.381 49.6546 116.343 50.0545 118.533 51.5419C120.724 53.0294 122.113 55.5839 121.91 57.7536C121.738 59.5918 120.542 61.162 118.787 61.8515C116.759 62.6479 114.327 62.1936 111.939 60.572Z" fill="white"/>
</g>
</g>
<path id="Vector_43" opacity="0.3" d="M120.19 53.0385L109.157 57.731C108.602 56.7943 108.337 55.799 108.381 54.7871C108.403 54.2897 108.501 53.81 108.675 53.3602L115.796 50.332C116.76 50.5687 117.702 50.9773 118.533 51.5424C119.158 51.9661 119.717 52.4738 120.19 53.0385Z" fill="white"/>
<path id="Vector_44" opacity="0.3" d="M121.774 56.0654L111.65 60.3678C111.006 59.9044 110.454 59.4107 109.996 58.886L121.012 54.1992C121.363 54.804 121.622 55.4368 121.774 56.0654Z" fill="white"/>
</g>
<path id="Vector_45" opacity="0.1" d="M132.814 47.6466C132.477 45.0399 130.398 42.0235 127.114 39.7929C123.831 37.5642 120.186 36.6937 117.524 37.2644C122.052 35.4844 126.11 35.4141 128.919 37.3211C131.727 39.2285 133.026 42.9367 132.814 47.6466Z" fill="black"/>
<g id="Group_15">
<g id="Group_16">
<path id="Vector_46" opacity="0.5" d="M93.5786 94.8816C94.8138 93.1903 93.8133 90.4597 91.3439 88.7828C88.8745 87.1058 85.8713 87.1174 84.636 88.8087C83.4008 90.5 84.4013 93.2306 86.8707 94.9076C89.3401 96.5846 92.3433 96.5729 93.5786 94.8816Z" fill="#407BFF"/>
<path id="Vector_47" opacity="0.5" d="M81.9117 93.2822C80.6765 94.9734 77.6734 94.9851 75.2038 93.3083C72.7342 91.6315 71.7335 88.9008 72.9686 87.2097C74.2038 85.5185 77.207 85.5068 79.6766 87.1836C82.1462 88.8608 83.1469 91.5911 81.9117 93.2822Z" fill="#407BFF"/>
<path id="Vector_48" opacity="0.5" d="M99.0641 104.929C97.8289 106.62 94.8258 106.632 92.3562 104.955C89.8866 103.278 88.8858 100.547 90.121 98.8562C91.3562 97.165 94.3593 97.1533 96.8289 98.8301C99.2985 100.507 100.299 103.237 99.0641 104.929Z" fill="#407BFF"/>
<path id="Vector_49" opacity="0.5" d="M87.399 103.335C86.1638 105.026 83.1607 105.038 80.6911 103.361C78.2215 101.684 77.2208 98.9536 78.456 97.2624C79.6911 95.5712 82.6943 95.5595 85.1639 97.2363C87.6335 98.9131 88.6342 101.643 87.399 103.335Z" fill="#407BFF"/>
</g>
<g id="Group_17">
<path id="Vector_50" opacity="0.5" d="M93.5776 94.875C93.4471 95.0538 93.2918 95.2167 93.1252 95.3581C93.8097 93.6707 92.7736 91.3335 90.5686 89.8363C88.3632 88.3386 85.7321 88.1859 84.3154 89.3759C84.3974 89.177 84.5036 88.9812 84.6345 88.8024C85.8681 87.1131 88.8736 87.1003 91.3424 88.7763C93.8109 90.4528 94.8112 93.1853 93.5776 94.875Z" fill="#407BFF"/>
<path id="Vector_51" opacity="0.5" d="M81.91 93.2823C81.7791 93.4615 81.6266 93.621 81.4577 93.7654C82.1444 92.0754 81.1115 89.7401 78.903 88.2406C76.6976 86.7429 74.0665 86.5902 72.6475 87.7832C72.7313 87.5813 72.836 87.3889 72.9666 87.2098C74.2025 85.5175 77.2056 85.5076 79.6745 87.1841C82.1464 88.8624 83.1456 91.59 81.91 93.2823Z" fill="#407BFF"/>
<path id="Vector_52" opacity="0.5" d="M99.0643 104.93C98.9334 105.109 98.7805 105.268 98.612 105.413C99.2987 103.723 98.2631 101.386 96.0573 99.8879C93.8488 98.3884 91.2208 98.2376 89.8018 99.4305C89.886 99.2287 89.9903 99.0363 90.1212 98.8571C91.3572 97.1648 94.3572 97.1527 96.8287 98.8314C99.2976 100.507 100.3 103.237 99.0643 104.93Z" fill="#407BFF"/>
<path id="Vector_53" opacity="0.5" d="M87.3983 103.335C87.2674 103.514 87.1176 103.676 86.9459 103.818C87.6304 102.131 86.5967 99.7906 84.3913 98.2933C82.1859 96.7957 79.5524 96.646 78.1357 97.8359C78.2165 97.6322 78.3239 97.4417 78.4548 97.2625C79.6908 95.5702 82.6939 95.5604 85.1627 97.2368C87.6315 98.9128 88.6339 101.643 87.3983 103.335Z" fill="#407BFF"/>
</g>
</g>
</g>
<g id="Group_18">
<g id="Group_19">
<path id="Vector_54" d="M91.1698 63.5916C91.1698 63.5916 85.8809 70.2127 81.2714 75.914C79.9515 77.5466 77.8316 78.3253 75.7011 78.0709C71.6733 77.5901 65.1006 80.3453 65.1006 80.3453C65.1006 80.3453 77.5235 60.6874 91.1698 63.5916Z" fill="#407BFF"/>
<path id="Vector_55" opacity="0.3" d="M91.1698 63.5916C91.1698 63.5916 85.8809 70.2127 81.2714 75.914C79.9515 77.5466 77.8316 78.3253 75.7011 78.0709C71.6733 77.5901 65.1006 80.3453 65.1006 80.3453C65.1006 80.3453 77.5235 60.6874 91.1698 63.5916Z" fill="black"/>
</g>
<g id="Group_20">
<path id="Vector_56" d="M115.989 80.4453C115.989 80.4453 111.307 87.478 107.294 93.5846C106.145 95.3332 106.099 97.5199 107.065 99.3687C108.892 102.864 108.417 109.759 108.417 109.759C108.417 109.759 123.424 91.8556 115.989 80.4453Z" fill="#407BFF"/>
<path id="Vector_57" opacity="0.3" d="M115.989 80.4453C115.989 80.4453 111.307 87.478 107.294 93.5846C106.145 95.3332 106.099 97.5199 107.065 99.3687C108.892 102.864 108.417 109.759 108.417 109.759C108.417 109.759 123.424 91.8556 115.989 80.4453Z" fill="black"/>
</g>
</g>
</g>
<g id="Group_21">
<path id="Vector_58" d="M133.088 131.019C137.967 119.466 116.825 116.193 108.438 119.092C100.052 121.991 91.5189 124.146 91.1829 116.416C90.847 108.686 97.306 103.892 94.2307 102.108C92.5236 101.118 92.0359 102.878 91.1966 105.414C88.6134 113.217 74.0074 115.078 80.7275 126.376C87.4479 137.674 83.8792 135.221 72.5562 139.755C61.2329 144.289 67.0557 157.338 78.0094 157.338C88.963 157.338 123.481 157.338 143.903 157.338C174.102 157.338 145.511 101.598 133.088 131.019Z" fill="#407BFF"/>
<path id="Vector_59" opacity="0.6" d="M133.088 131.019C137.967 119.466 116.825 116.193 108.438 119.092C100.052 121.991 91.5189 124.146 91.1829 116.416C90.847 108.686 97.306 103.892 94.2307 102.108C92.5236 101.118 92.0359 102.878 91.1966 105.414C88.6134 113.217 74.0074 115.078 80.7275 126.376C87.4479 137.674 83.8792 135.221 72.5562 139.755C61.2329 144.289 67.0557 157.338 78.0094 157.338C88.963 157.338 123.481 157.338 143.903 157.338C174.102 157.338 145.511 101.598 133.088 131.019Z" fill="white"/>
</g>
<g id="Group_22">
<path id="Vector_60" d="M77.4402 90.7548C76.5613 87.8132 71.8107 91.5199 67.1282 95.9871C62.4078 100.491 60.1397 110.692 55.6144 116.007C51.0574 121.358 38.1222 126.168 43.1904 134.18C50.667 145.998 33.4833 157.338 53.832 157.338C74.1807 157.338 87.9395 157.338 95.5702 157.338C103.201 157.338 111.478 148.339 99.5929 142.207C87.7082 136.075 69.9028 150.355 65.1004 136.744C62.7175 129.99 71.3587 133.09 67.3595 122.027C63.3603 110.966 63.6191 107.956 65.661 103.026C70.6284 91.0353 78.7749 95.2212 77.4402 90.7548Z" fill="#407BFF"/>
<path id="Vector_61" opacity="0.6" d="M77.4402 90.7548C76.5613 87.8132 71.8107 91.5199 67.1282 95.9871C62.4078 100.491 60.1397 110.692 55.6144 116.007C51.0574 121.358 38.1222 126.168 43.1904 134.18C50.667 145.998 33.4833 157.338 53.832 157.338C74.1807 157.338 87.9395 157.338 95.5702 157.338C103.201 157.338 111.478 148.339 99.5929 142.207C87.7082 136.075 69.9028 150.355 65.1004 136.744C62.7175 129.99 71.3587 133.09 67.3595 122.027C63.3603 110.966 63.6191 107.956 65.661 103.026C70.6284 91.0353 78.7749 95.2212 77.4402 90.7548Z" fill="white"/>
</g>
<g id="Group_23">
<path id="Vector_62" d="M86.0897 92.1113C87.1258 90.2879 90.6765 91.3829 90.5989 93.7658C90.5213 96.1491 81.3234 99.2775 83.0321 107.512C84.7408 115.747 101.159 116.342 105.013 124.592C108.866 132.842 93.9407 134 98.3762 139.159C102.812 144.319 116.575 132.47 126.364 135.517C136.153 138.565 145.942 157.338 127.982 157.338C110.023 157.338 84.6805 157.338 72.648 157.338C60.6156 157.338 51.8285 133.375 63.3906 123.52C74.9522 113.666 65.6257 116.862 69.9424 110.544C74.2584 104.226 82.1203 99.0979 86.0897 92.1113Z" fill="#407BFF"/>
<path id="Vector_63" opacity="0.8" d="M86.0897 92.1113C87.1258 90.2879 90.6765 91.3829 90.5989 93.7658C90.5213 96.1491 81.3234 99.2775 83.0321 107.512C84.7408 115.747 101.159 116.342 105.013 124.592C108.866 132.842 93.9407 134 98.3762 139.159C102.812 144.319 116.575 132.47 126.364 135.517C136.153 138.565 145.942 157.338 127.982 157.338C110.023 157.338 84.6805 157.338 72.648 157.338C60.6156 157.338 51.8285 133.375 63.3906 123.52C74.9522 113.666 65.6257 116.862 69.9424 110.544C74.2584 104.226 82.1203 99.0979 86.0897 92.1113Z" fill="white"/>
</g>
</g>
</g>
<defs>
<clipPath id="clip0_41_466">
<rect width="196" height="189" fill="white"/>
</clipPath>
</defs>
</svg>
