<svg width="22" height="22" viewBox="0 0 22 22" fill="none" xmlns="http://www.w3.org/2000/svg">
<g id="ion:ticket">
<path id="Vector" d="M10.6173 7V9H5.89066V20H16.2893V15H18.18V21C18.18 21.2652 18.0804 21.5196 17.9031 21.7071C17.7258 21.8946 17.4853 22 17.2346 22H4.94533C4.69461 22 4.45416 21.8946 4.27688 21.7071C4.0996 21.5196 4 21.2652 4 21V8C4 7.73478 4.0996 7.48043 4.27688 7.29289C4.45416 7.10536 4.69461 7 4.94533 7H10.6173ZM21.0159 4V12H19.1253V7.413L11.7583 15.207L10.4216 13.793L17.7876 6H13.4533V4H21.0159Z" fill="#333333"/>
</g>
</svg>
