<svg width="22" height="22" viewBox="0 0 22 22" fill="none" xmlns="http://www.w3.org/2000/svg">
<g id="account_circle">
<mask id="mask0_11_577" style="mask-type:alpha" maskUnits="userSpaceOnUse" x="0" y="0" width="22" height="22">
<rect id="Bounding box" width="22" height="22" fill="#D9D9D9"/>
</mask>
<g mask="url(#mask0_11_577)">
<path id="account_circle_2" d="M5.36217 15.6747C6.14134 15.0788 7.01217 14.609 7.97467 14.2653C8.93717 13.9215 9.94551 13.7497 10.9997 13.7497C12.0538 13.7497 13.0622 13.9215 14.0247 14.2653C14.9872 14.609 15.858 15.0788 16.6372 15.6747C17.1719 15.0483 17.5882 14.3379 17.8861 13.5434C18.184 12.749 18.333 11.9011 18.333 10.9997C18.333 8.96773 17.6188 7.23752 16.1903 5.80905C14.7618 4.38058 13.0316 3.66634 10.9997 3.66634C8.96773 3.66634 7.23752 4.38058 5.80905 5.80905C4.38058 7.23752 3.66634 8.96773 3.66634 10.9997C3.66634 11.9011 3.8153 12.749 4.11322 13.5434C4.41113 14.3379 4.82745 15.0483 5.36217 15.6747ZM10.9997 11.9163C10.0983 11.9163 9.33822 11.607 8.71947 10.9882C8.10072 10.3695 7.79134 9.6094 7.79134 8.70801C7.79134 7.80662 8.10072 7.04655 8.71947 6.4278C9.33822 5.80905 10.0983 5.49967 10.9997 5.49967C11.9011 5.49967 12.6611 5.80905 13.2799 6.4278C13.8986 7.04655 14.208 7.80662 14.208 8.70801C14.208 9.6094 13.8986 10.3695 13.2799 10.9882C12.6611 11.607 11.9011 11.9163 10.9997 11.9163ZM10.9997 20.1663C9.73162 20.1663 8.53995 19.9257 7.42467 19.4445C6.3094 18.9632 5.33926 18.3101 4.51426 17.4851C3.68926 16.6601 3.03613 15.69 2.55488 14.5747C2.07363 13.4594 1.83301 12.2677 1.83301 10.9997C1.83301 9.73162 2.07363 8.53995 2.55488 7.42467C3.03613 6.3094 3.68926 5.33926 4.51426 4.51426C5.33926 3.68926 6.3094 3.03613 7.42467 2.55488C8.53995 2.07363 9.73162 1.83301 10.9997 1.83301C12.2677 1.83301 13.4594 2.07363 14.5747 2.55488C15.69 3.03613 16.6601 3.68926 17.4851 4.51426C18.3101 5.33926 18.9632 6.3094 19.4445 7.42467C19.9257 8.53995 20.1663 9.73162 20.1663 10.9997C20.1663 12.2677 19.9257 13.4594 19.4445 14.5747C18.9632 15.69 18.3101 16.6601 17.4851 17.4851C16.6601 18.3101 15.69 18.9632 14.5747 19.4445C13.4594 19.9257 12.2677 20.1663 10.9997 20.1663ZM10.9997 18.333C11.8094 18.333 12.5733 18.2146 13.2913 17.9778C14.0094 17.741 14.6663 17.4011 15.2622 16.958C14.6663 16.515 14.0094 16.175 13.2913 15.9382C12.5733 15.7014 11.8094 15.583 10.9997 15.583C10.19 15.583 9.42606 15.7014 8.70801 15.9382C7.98995 16.175 7.33301 16.515 6.73717 16.958C7.33301 17.4011 7.98995 17.741 8.70801 17.9778C9.42606 18.2146 10.19 18.333 10.9997 18.333ZM10.9997 10.083C11.3969 10.083 11.7254 9.95315 11.9851 9.69342C12.2448 9.4337 12.3747 9.10523 12.3747 8.70801C12.3747 8.31079 12.2448 7.98231 11.9851 7.72259C11.7254 7.46287 11.3969 7.33301 10.9997 7.33301C10.6025 7.33301 10.274 7.46287 10.0143 7.72259C9.75454 7.98231 9.62467 8.31079 9.62467 8.70801C9.62467 9.10523 9.75454 9.4337 10.0143 9.69342C10.274 9.95315 10.6025 10.083 10.9997 10.083Z" fill="#8B96A5"/>
</g>
</g>
</svg>
