<svg width="22" height="22" viewBox="0 0 22 22" fill="none" xmlns="http://www.w3.org/2000/svg">
<g id="call">
<mask id="mask0_11_580" style="mask-type:alpha" maskUnits="userSpaceOnUse" x="0" y="0" width="22" height="22">
<rect id="Bounding box" width="22" height="22" fill="#D9D9D9"/>
</mask>
<g mask="url(#mask0_11_580)">
<path id="call_2" d="M18.2875 19.25C16.3778 19.25 14.491 18.8337 12.6271 18.001C10.7632 17.1684 9.06736 15.9882 7.53958 14.4604C6.01181 12.9326 4.8316 11.2368 3.99896 9.37292C3.16632 7.50903 2.75 5.62222 2.75 3.7125C2.75 3.4375 2.84167 3.20833 3.025 3.025C3.20833 2.84167 3.4375 2.75 3.7125 2.75H7.425C7.63889 2.75 7.82986 2.82257 7.99792 2.96771C8.16597 3.11285 8.26528 3.28472 8.29583 3.48333L8.89167 6.69167C8.92222 6.93611 8.91458 7.14236 8.86875 7.31042C8.82292 7.47847 8.73889 7.62361 8.61667 7.74583L6.39375 9.99167C6.69931 10.5569 7.06215 11.1031 7.48229 11.6302C7.90243 12.1573 8.36458 12.6653 8.86875 13.1542C9.34236 13.6278 9.83889 14.067 10.3583 14.4719C10.8778 14.8767 11.4278 15.2472 12.0083 15.5833L14.1625 13.4292C14.3 13.2917 14.4795 13.1885 14.701 13.1198C14.9226 13.051 15.1403 13.0319 15.3542 13.0625L18.5167 13.7042C18.7306 13.7653 18.9062 13.876 19.0438 14.0365C19.1813 14.1969 19.25 14.3764 19.25 14.575V18.2875C19.25 18.5625 19.1583 18.7917 18.975 18.975C18.7917 19.1583 18.5625 19.25 18.2875 19.25ZM5.52292 8.25L7.03542 6.7375L6.64583 4.58333H4.60625C4.68264 5.20972 4.78958 5.82847 4.92708 6.43958C5.06458 7.05069 5.26319 7.65417 5.52292 8.25ZM13.7271 16.4542C14.3229 16.7139 14.9302 16.9201 15.549 17.0729C16.1677 17.2257 16.7903 17.325 17.4167 17.3708V15.3542L15.2625 14.9188L13.7271 16.4542Z" fill="#8B96A5"/>
</g>
</g>
</svg>
