<svg width="22" height="22" viewBox="0 0 22 22" fill="none" xmlns="http://www.w3.org/2000/svg">
<g id="mail">
<mask id="mask0_11_583" style="mask-type:alpha" maskUnits="userSpaceOnUse" x="0" y="0" width="22" height="22">
<rect id="Bounding box" width="22" height="22" fill="#D9D9D9"/>
</mask>
<g mask="url(#mask0_11_583)">
<path id="mail_2" d="M3.66634 18.3337C3.16217 18.3337 2.73058 18.1541 2.37155 17.7951C2.01252 17.4361 1.83301 17.0045 1.83301 16.5003V5.50033C1.83301 4.99616 2.01252 4.56456 2.37155 4.20553C2.73058 3.84651 3.16217 3.66699 3.66634 3.66699H18.333C18.8372 3.66699 19.2688 3.84651 19.6278 4.20553C19.9868 4.56456 20.1663 4.99616 20.1663 5.50033V16.5003C20.1663 17.0045 19.9868 17.4361 19.6278 17.7951C19.2688 18.1541 18.8372 18.3337 18.333 18.3337H3.66634ZM10.9997 11.917L3.66634 7.33366V16.5003H18.333V7.33366L10.9997 11.917ZM10.9997 10.0837L18.333 5.50033H3.66634L10.9997 10.0837ZM3.66634 7.33366V5.50033V16.5003V7.33366Z" fill="#8B96A5"/>
</g>
</g>
</svg>
